<svg xmlns="http://www.w3.org/2000/svg" viewBox="0 0 405.57 405.57"><defs><style>.cls-1{fill:#303;}.cls-2{fill:#fff;}</style></defs><title>logo</title><g id="Layer_2" data-name="Layer 2"><g id="Objects"><circle class="cls-1" cx="202.79" cy="202.79" r="202.79" transform="translate(-84 202.79) rotate(-45)"/><path class="cls-2" d="M212.65,92.22c-2.6-1.88-5.44-1.87-8.43,0L93.72,157.91H323.18L212.67,92.24Z"/><path class="cls-2" d="M91.75,154.22,203.69,87.68c3.31-2.09,6.61-2.09,9.53,0l111.92,66.52h.79a6.94,6.94,0,0,0,0-9.46L213,77.62c-2.87-2.08-5.94-1.94-9,0L91,144.77a6.93,6.93,0,0,0,0,9.45Z"/><path class="cls-2" d="M316.53,164.07c0-1-.36-1.38-1.33-1.38H101.54c-1,0-1.68.35-1.68,1.38v5.35a2,2,0,0,0,1.68,2.09H315.2c1,0,1.33-1.07,1.33-2.09Z"/><path class="cls-2" d="M316.53,266.11c0-1-.36-1.79-1.33-1.79H101.54a1.69,1.69,0,0,0-1.68,1.79v5.35c0,1,.7,1.33,1.68,1.33H315.2c1,0,1.33-.31,1.33-1.33Z"/><path class="cls-2" d="M324.65,279.57a1.74,1.74,0,0,0-1.74-1.84H93.82a1.73,1.73,0,0,0-1.73,1.84v5.34a1.86,1.86,0,0,0,1.73,2H322.91a1.87,1.87,0,0,0,1.74-2Z"/><path class="cls-2" d="M333.82,293a2,2,0,0,0-2-1.88H85a2,2,0,0,0-2,1.88v5.35c0,1,.91,1.59,2,1.59H331.78c1.12,0,2-.56,2-1.59Z"/><path class="cls-2" d="M149.62,181.38a1.77,1.77,0,0,1-1.78,1.78H124.06a1.94,1.94,0,0,1-2-1.78v-2.46c0-1,.94-1.41,2-1.41h23.78c1,0,1.78.45,1.78,1.41Z"/><path class="cls-2" d="M154.14,256.8c0,1-.83,1.52-1.85,1.52H120.2c-1,0-1.86-.56-1.86-1.52l4.12-5.78c1-1.31,1.44-1.52,2.47-1.52h22.63c1,0,1.49-.22,2.47,1.52Z"/><path class="cls-2" d="M146.79,243.73a1.69,1.69,0,0,1-1.55,1.89H126.66a1.83,1.83,0,0,1-1.75-1.89V188.81c0-1,.72-1.42,1.75-1.42h18.58c1,0,1.55.46,1.55,1.42Z"/><path class="cls-2" d="M198,181.38a1.82,1.82,0,0,1-1.84,1.78H172.34a1.58,1.58,0,0,1-1.55-1.78v-2.46c0-1,.52-1.41,1.55-1.41h23.78c1,0,1.84.45,1.84,1.41Z"/><path class="cls-2" d="M202.28,256.8c0,1-.83,1.52-1.85,1.52H168.34c-1,0-1.86-.56-1.86-1.52L170.6,251c1-1.31,1.45-1.52,2.47-1.52H195.7c1,0,1.49-.22,2.47,1.52Z"/><path class="cls-2" d="M195.49,243.73a2,2,0,0,1-2,1.89H174.94a2.09,2.09,0,0,1-2-1.89V188.81c0-1,1-1.42,2-1.42h18.58c1,0,2,.46,2,1.42Z"/><path class="cls-2" d="M246,181.38a1.9,1.9,0,0,1-1.93,1.78H220.24a1.8,1.8,0,0,1-1.81-1.78v-2.46c0-1,.79-1.41,1.81-1.41H244c1,0,1.93.45,1.93,1.41Z"/><path class="cls-2" d="M250.42,256.8c0,1-.83,1.52-1.85,1.52H216.48c-1,0-1.85-.56-1.85-1.52l4.11-5.78c1-1.31,1.45-1.52,2.47-1.52h22.63c1,0,1.49-.22,2.47,1.52Z"/><path class="cls-2" d="M243.13,243.73a1.8,1.8,0,0,1-1.71,1.89H222.84a1.72,1.72,0,0,1-1.59-1.89V188.81c0-1,.57-1.42,1.59-1.42h18.58c1,0,1.71.46,1.71,1.42Z"/><path class="cls-2" d="M294.65,181.38a2,2,0,0,1-2,1.78H268.89a2.09,2.09,0,0,1-2.12-1.78v-2.46c0-1,1.1-1.41,2.12-1.41h23.78c1,0,2,.45,2,1.41Z"/><path class="cls-2" d="M298.56,256.8c0,1-.83,1.52-1.85,1.52H264.62c-1,0-1.85-.56-1.85-1.52l4.11-5.78c1-1.31,1.45-1.52,2.47-1.52H292c1,0,1.49-.22,2.47,1.52Z"/><path class="cls-2" d="M291.48,243.73a1.87,1.87,0,0,1-1.78,1.89H271.12a2,2,0,0,1-1.88-1.89V188.81c0-1,.86-1.42,1.88-1.42H289.7c1,0,1.78.46,1.78,1.42Z"/><path class="cls-1" d="M209.25,129.29v4.38a1.79,1.79,0,0,0,1.54-2A2.33,2.33,0,0,0,209.25,129.29Z"/><path class="cls-1" d="M205.62,122.41c0,1,.81,1.56,1.52,2v-3.86A2.27,2.27,0,0,0,205.62,122.41Z"/><path class="cls-1" d="M208.54,108.77a17.85,17.85,0,1,0,17.85,17.85A17.85,17.85,0,0,0,208.54,108.77Zm.71,28v1.91h-2.11v-1.87c-2.83-.34-5.55-2.21-5.55-5.72,0-.22,0-.52,0-.52h3.65s0,.22,0,.36c0,1.39.13,2.35,1.9,2.75v-5.34c-2.47-.82-5.15-1.81-5.15-5.7,0-3.15,2.32-4.84,5.15-5.2v-1.7h2.11v1.73c3.18.4,4.94,2.1,4.94,5.45v.24h-3.53V123a2.16,2.16,0,0,0-1.41-2.29v4.57c2.83.79,5.16,1.84,5.16,5.6S212.43,136.38,209.25,136.78Z"/></g></g></svg>